# xmcd
#
# Track frame offsets: 
#        150
#        14826
#        27335
#        46783
#        58014
#        75201
#        87636
#        108156
#        127922
#        148165
#
# Disc length: 2549 seconds
#
# Revision: 0
# Processed by: cddbd v1.5.2PL0 Copyright (c) Steve Scherf et al.
# Submitted via: ExactAudioCopy v0.95b4
#
DISCID=7d09f30a
DTITLE=Rosavelt - Goodbye Rollercoaster
DYEAR=2005
DGENRE=Southern Rock
TTITLE0=Here Again
TTITLE1=Funny Bones
TTITLE2=Onendego
TTITLE3=Beutiful Day of Misery
TTITLE4=Two Stepping
TTITLE5=Bullet Proof
TTITLE6=Shortest Day of the Year
TTITLE7=Loveless
TTITLE8=Match Stick Girl
TTITLE9=Damrak Street Fair
EXTD=
EXTT0=
EXTT1=
EXTT2=
EXTT3=
EXTT4=
EXTT5=
EXTT6=
EXTT7=
EXTT8=
EXTT9=
PLAYORDER=
